<?xml version="1.0" encoding="iso-8859-1"?>
<!-- Generator: Adobe Illustrator 19.0.0, SVG Export Plug-In . SVG Version: 6.00 Build 0)  -->
<svg version="1.1" id="Capa_1" xmlns="http://www.w3.org/2000/svg" xmlns:xlink="http://www.w3.org/1999/xlink" x="0px" y="0px"
	 viewBox="0 0 480 480" style="enable-background:new 0 0 480 480;" xml:space="preserve">
<g>
	
		<linearGradient id="SVGID_1_" gradientUnits="userSpaceOnUse" x1="-26.875" y1="618.615" x2="-26.875" y2="554.824" gradientTransform="matrix(8 0 0 -8 455 4941)">
		<stop  offset="0" style="stop-color:#006DF0"/>
		<stop  offset="1" style="stop-color:#00E7F0"/>
	</linearGradient>
	<path style="fill:url(#SVGID_1_);" d="M344,0H136c-22.08,0.026-39.974,17.92-40,40v400c0.026,22.08,17.92,39.974,40,40h208
		c22.08-0.026,39.974-17.92,40-40V40C383.974,17.92,366.08,0.026,344,0z M136,16h208c13.255,0,24,10.745,24,24v8H112v-8
		C112,26.745,122.745,16,136,16z M344,464H136c-13.255,0-24-10.745-24-24v-8h104v-16H112V64h256v352H264v16h104v8
		C368,453.255,357.255,464,344,464z"/>
	
		<linearGradient id="SVGID_2_" gradientUnits="userSpaceOnUse" x1="-26.875" y1="618.615" x2="-26.875" y2="554.824" gradientTransform="matrix(8 0 0 -8 455 4941)">
		<stop  offset="0" style="stop-color:#006DF0"/>
		<stop  offset="1" style="stop-color:#00E7F0"/>
	</linearGradient>
	<path style="fill:url(#SVGID_2_);" d="M232,416h16v16h-16V416z"/>
	
		<linearGradient id="SVGID_3_" gradientUnits="userSpaceOnUse" x1="-26.875" y1="618.615" x2="-26.875" y2="554.824" gradientTransform="matrix(8 0 0 -8 455 4941)">
		<stop  offset="0" style="stop-color:#006DF0"/>
		<stop  offset="1" style="stop-color:#00E7F0"/>
	</linearGradient>
	<path style="fill:url(#SVGID_3_);" d="M232,24h16v16h-16V24z"/>
	
		<linearGradient id="SVGID_4_" gradientUnits="userSpaceOnUse" x1="-26.875" y1="618.615" x2="-26.875" y2="554.824" gradientTransform="matrix(8 0 0 -8 455 4941)">
		<stop  offset="0" style="stop-color:#006DF0"/>
		<stop  offset="1" style="stop-color:#00E7F0"/>
	</linearGradient>
	<path style="fill:url(#SVGID_4_);" d="M272,208c0-17.673-14.327-32-32-32s-32,14.327-32,32s14.327,32,32,32S272,225.673,272,208z
		 M240,224c-8.837,0-16-7.163-16-16s7.163-16,16-16c8.837,0,16,7.163,16,16S248.837,224,240,224z"/>
	
		<linearGradient id="SVGID_5_" gradientUnits="userSpaceOnUse" x1="-26.875" y1="618.615" x2="-26.875" y2="554.824" gradientTransform="matrix(8 0 0 -8 455 4941)">
		<stop  offset="0" style="stop-color:#006DF0"/>
		<stop  offset="1" style="stop-color:#00E7F0"/>
	</linearGradient>
	<path style="fill:url(#SVGID_5_);" d="M296,327.816v-0.184c48.4-30.928,62.564-95.236,31.636-143.636S232.4,121.433,184,152.361
		s-62.564,95.236-31.636,143.636c8.125,12.715,18.92,23.51,31.636,31.636v0.176l4,2.312c15.813,9.116,33.748,13.903,52,13.88
		c4.572,0.002,9.139-0.295,13.672-0.888c13.507-1.757,26.534-6.17,38.328-12.984L296,327.816z M152,240
		c-0.085-48.601,39.245-88.069,87.846-88.154s88.069,39.245,88.154,87.846c0.046,26.323-11.694,51.285-32,68.036V296
		c-0.035-30.913-25.087-55.965-56-56c-30.913,0.035-55.965,25.087-56,56v11.728C163.812,291.019,152.088,266.206,152,240z
		 M275.96,320.208c-1.152,0.512-2.296,1.04-3.464,1.496c-2.6,1.008-5.256,1.864-7.944,2.624c-0.8,0.216-1.536,0.488-2.32,0.688
		c-14.597,3.644-29.867,3.644-44.464,0c-0.8-0.192-1.544-0.464-2.32-0.68c-2.688-0.752-5.336-1.6-7.936-2.616
		c-1.184-0.464-2.344-1-3.504-1.52c-1.36-0.6-2.68-1.288-4-1.96V296c0.026-22.08,17.92-39.974,40-40c22.075,0.04,39.96,17.925,40,40
		v22.232C278.664,318.912,277.328,319.6,275.96,320.208L275.96,320.208z"/>
</g>
<g>
</g>
<g>
</g>
<g>
</g>
<g>
</g>
<g>
</g>
<g>
</g>
<g>
</g>
<g>
</g>
<g>
</g>
<g>
</g>
<g>
</g>
<g>
</g>
<g>
</g>
<g>
</g>
<g>
</g>
</svg>
